{
    "asset" : {
        "generator" : "Khronos glTF Blender I/O v1.8.19",
        "version" : "2.0"
    },
    "scene" : 0,
    "scenes" : [
        {
            "name" : "Scene",
            "nodes" : [
                0,
                2,
                3,
                4,
                5,
                6,
                7,
                8,
                9
            ]
        }
    ],
    "nodes" : [
        {
            "mesh" : 0,
            "name" : "Plane",
            "scale" : [
                7.733501434326172,
                7.733501434326172,
                32.721397399902344
            ],
            "translation" : [
                -0.1814556121826172,
                -0.0051645636558532715,
                0.06564998626708984
            ]
        },
        {
            "camera" : 0,
            "name" : "Camera_Orientation",
            "rotation" : [
                -0.7071067690849304,
                0,
                0,
                0.7071067690849304
            ]
        },
        {
            "children" : [
                1
            ],
            "name" : "Camera",
            "rotation" : [
                0.5516400337219238,
                0.44055017828941345,
                -0.560701310634613,
                0.4326927661895752
            ],
            "translation" : [
                49.33854675292969,
                20.08709716796875,
                -0.16314983367919922
            ]
        },
        {
            "mesh" : 1,
            "name" : "Torus.001",
            "rotation" : [
                0.3535533845424652,
                0.3535533845424652,
                -0.6123724579811096,
                0.6123723983764648
            ],
            "scale" : [
                1.4548789262771606,
                1.4548791646957397,
                1.4548791646957397
            ],
            "translation" : [
                7.641076564788818,
                31.023208618164062,
                -4.414007186889648
            ]
        },
        {
            "name" : "Plane.001",
            "rotation" : [
                0.28061211109161377,
                0.26665619015693665,
                -0.6547887921333313,
                0.6491556167602539
            ],
            "translation" : [
                6.648704528808594,
                16.027881622314453,
                -9.753113746643066
            ]
        },
        {
            "mesh" : 2,
            "name" : "Plane.002",
            "scale" : [
                0.36467599868774414,
                0.36467599868774414,
                0.36467599868774414
            ],
            "translation" : [
                5.659297943115234,
                34.734466552734375,
                -8.20814037322998
            ]
        },
        {
            "mesh" : 3,
            "name" : "Plane.003",
            "scale" : [
                0.25433382391929626,
                0.25433382391929626,
                0.25433382391929626
            ],
            "translation" : [
                6.119052886962891,
                35.760990142822266,
                -3.854367733001709
            ]
        },
        {
            "mesh" : 4,
            "name" : "Plane.004",
            "scale" : [
                0.29763633012771606,
                0.2976363003253937,
                0.29763633012771606
            ],
            "translation" : [
                6.693431854248047,
                33.96247482299805,
                -0.9415597915649414
            ]
        },
        {
            "mesh" : 5,
            "name" : "Plane.005",
            "scale" : [
                0.14033706486225128,
                0.1403370499610901,
                0.14033706486225128
            ],
            "translation" : [
                6.68208646774292,
                27.60805320739746,
                -6.872354984283447
            ]
        },
        {
            "mesh" : 6,
            "name" : "Plane.006",
            "scale" : [
                0.25410547852516174,
                0.25410547852516174,
                0.25410544872283936
            ],
            "translation" : [
                7.071503639221191,
                26.3206787109375,
                -4.718503952026367
            ]
        }
    ],
    "cameras" : [
        {
            "name" : "Camera.001",
            "perspective" : {
                "aspectRatio" : 1.7777777777777777,
                "yfov" : 0.2594662909027285,
                "zfar" : 1000,
                "znear" : 0.10000000149011612
            },
            "type" : "perspective"
        }
    ],
    "animations" : [
        {
            "channels" : [
                {
                    "sampler" : 0,
                    "target" : {
                        "node" : 3,
                        "path" : "rotation"
                    }
                }
            ],
            "name" : "Torus.001Action.001",
            "samplers" : [
                {
                    "input" : 24,
                    "interpolation" : "LINEAR",
                    "output" : 25
                }
            ]
        }
    ],
    "materials" : [
        {
            "doubleSided" : true,
            "name" : "Background",
            "pbrMetallicRoughness" : {
                "baseColorFactor" : [
                    0.1384313404560089,
                    0.07035990804433823,
                    0.4396570026874542,
                    1
                ],
                "metallicFactor" : 0.9119496941566467
            }
        },
        {
            "doubleSided" : true,
            "name" : "Gradient",
            "pbrMetallicRoughness" : {
                "metallicFactor" : 0
            }
        }
    ],
    "meshes" : [
        {
            "name" : "Plane.003",
            "primitives" : [
                {
                    "attributes" : {
                        "POSITION" : 0,
                        "NORMAL" : 1,
                        "TEXCOORD_0" : 2
                    },
                    "indices" : 3,
                    "material" : 0
                }
            ]
        },
        {
            "name" : "Torus.001",
            "primitives" : [
                {
                    "attributes" : {
                        "POSITION" : 4,
                        "NORMAL" : 5,
                        "TEXCOORD_0" : 6
                    },
                    "indices" : 7,
                    "material" : 1
                }
            ]
        },
        {
            "name" : "Plane",
            "primitives" : [
                {
                    "attributes" : {
                        "POSITION" : 8,
                        "NORMAL" : 9,
                        "TEXCOORD_0" : 10
                    },
                    "indices" : 11,
                    "material" : 1
                }
            ]
        },
        {
            "name" : "Plane.001",
            "primitives" : [
                {
                    "attributes" : {
                        "POSITION" : 12,
                        "NORMAL" : 13,
                        "TEXCOORD_0" : 14
                    },
                    "indices" : 11,
                    "material" : 1
                }
            ]
        },
        {
            "name" : "Plane.002",
            "primitives" : [
                {
                    "attributes" : {
                        "POSITION" : 15,
                        "NORMAL" : 16,
                        "TEXCOORD_0" : 17
                    },
                    "indices" : 11,
                    "material" : 1
                }
            ]
        },
        {
            "name" : "Plane.005",
            "primitives" : [
                {
                    "attributes" : {
                        "POSITION" : 18,
                        "NORMAL" : 19,
                        "TEXCOORD_0" : 20
                    },
                    "indices" : 11,
                    "material" : 1
                }
            ]
        },
        {
            "name" : "Plane.006",
            "primitives" : [
                {
                    "attributes" : {
                        "POSITION" : 21,
                        "NORMAL" : 22,
                        "TEXCOORD_0" : 23
                    },
                    "indices" : 11,
                    "material" : 1
                }
            ]
        }
    ],
    "accessors" : [
        {
            "bufferView" : 0,
            "componentType" : 5126,
            "count" : 86,
            "max" : [
                3.0129897594451904,
                11.846384048461914,
                2.0452826023101807
            ],
            "min" : [
                -1.1471869945526123,
                0,
                -2.3732380867004395
            ],
            "type" : "VEC3"
        },
        {
            "bufferView" : 1,
            "componentType" : 5126,
            "count" : 86,
            "type" : "VEC3"
        },
        {
            "bufferView" : 2,
            "componentType" : 5126,
            "count" : 86,
            "type" : "VEC2"
        },
        {
            "bufferView" : 3,
            "componentType" : 5123,
            "count" : 132,
            "type" : "SCALAR"
        },
        {
            "bufferView" : 4,
            "componentType" : 5126,
            "count" : 258,
            "max" : [
                8.949999809265137,
                0.8575951457023621,
                8.511955261230469
            ],
            "min" : [
                -7.240703582763672,
                -0.8575951457023621,
                -8.511955261230469
            ],
            "type" : "VEC3"
        },
        {
            "bufferView" : 5,
            "componentType" : 5126,
            "count" : 258,
            "type" : "VEC3"
        },
        {
            "bufferView" : 6,
            "componentType" : 5126,
            "count" : 258,
            "type" : "VEC2"
        },
        {
            "bufferView" : 7,
            "componentType" : 5123,
            "count" : 1260,
            "type" : "SCALAR"
        },
        {
            "bufferView" : 8,
            "componentType" : 5126,
            "count" : 40,
            "max" : [
                0.9839743971824646,
                0.3647608458995819,
                0.9606839418411255
            ],
            "min" : [
                -0.9839708805084229,
                -0.3647615611553192,
                -1.085517168045044
            ],
            "type" : "VEC3"
        },
        {
            "bufferView" : 9,
            "componentType" : 5126,
            "count" : 40,
            "type" : "VEC3"
        },
        {
            "bufferView" : 10,
            "componentType" : 5126,
            "count" : 40,
            "type" : "VEC2"
        },
        {
            "bufferView" : 11,
            "componentType" : 5123,
            "count" : 114,
            "type" : "SCALAR"
        },
        {
            "bufferView" : 12,
            "componentType" : 5126,
            "count" : 40,
            "max" : [
                0.9839743971824646,
                0.3647608458995819,
                0.9606839418411255
            ],
            "min" : [
                -0.9839708805084229,
                -0.3647615611553192,
                -1.085517168045044
            ],
            "type" : "VEC3"
        },
        {
            "bufferView" : 13,
            "componentType" : 5126,
            "count" : 40,
            "type" : "VEC3"
        },
        {
            "bufferView" : 14,
            "componentType" : 5126,
            "count" : 40,
            "type" : "VEC2"
        },
        {
            "bufferView" : 15,
            "componentType" : 5126,
            "count" : 40,
            "max" : [
                0.9839743971824646,
                0.3647608458995819,
                0.9606839418411255
            ],
            "min" : [
                -0.9839708805084229,
                -0.3647615611553192,
                -1.085517168045044
            ],
            "type" : "VEC3"
        },
        {
            "bufferView" : 16,
            "componentType" : 5126,
            "count" : 40,
            "type" : "VEC3"
        },
        {
            "bufferView" : 17,
            "componentType" : 5126,
            "count" : 40,
            "type" : "VEC2"
        },
        {
            "bufferView" : 18,
            "componentType" : 5126,
            "count" : 40,
            "max" : [
                0.9839743971824646,
                0.3647608458995819,
                0.9606839418411255
            ],
            "min" : [
                -0.9839708805084229,
                -0.3647615611553192,
                -1.085517168045044
            ],
            "type" : "VEC3"
        },
        {
            "bufferView" : 19,
            "componentType" : 5126,
            "count" : 40,
            "type" : "VEC3"
        },
        {
            "bufferView" : 20,
            "componentType" : 5126,
            "count" : 40,
            "type" : "VEC2"
        },
        {
            "bufferView" : 21,
            "componentType" : 5126,
            "count" : 40,
            "max" : [
                0.9839743971824646,
                0.3647608458995819,
                0.9606839418411255
            ],
            "min" : [
                -0.9839708805084229,
                -0.3647615611553192,
                -1.085517168045044
            ],
            "type" : "VEC3"
        },
        {
            "bufferView" : 22,
            "componentType" : 5126,
            "count" : 40,
            "type" : "VEC3"
        },
        {
            "bufferView" : 23,
            "componentType" : 5126,
            "count" : 40,
            "type" : "VEC2"
        },
        {
            "bufferView" : 24,
            "componentType" : 5126,
            "count" : 251,
            "max" : [
                10.416666666666666
            ],
            "min" : [
                0
            ],
            "type" : "SCALAR"
        },
        {
            "bufferView" : 25,
            "componentType" : 5126,
            "count" : 251,
            "type" : "VEC4"
        }
    ],
    "bufferViews" : [
        {
            "buffer" : 0,
            "byteLength" : 1032,
            "byteOffset" : 0
        },
        {
            "buffer" : 0,
            "byteLength" : 1032,
            "byteOffset" : 1032
        },
        {
            "buffer" : 0,
            "byteLength" : 688,
            "byteOffset" : 2064
        },
        {
            "buffer" : 0,
            "byteLength" : 264,
            "byteOffset" : 2752
        },
        {
            "buffer" : 0,
            "byteLength" : 3096,
            "byteOffset" : 3016
        },
        {
            "buffer" : 0,
            "byteLength" : 3096,
            "byteOffset" : 6112
        },
        {
            "buffer" : 0,
            "byteLength" : 2064,
            "byteOffset" : 9208
        },
        {
            "buffer" : 0,
            "byteLength" : 2520,
            "byteOffset" : 11272
        },
        {
            "buffer" : 0,
            "byteLength" : 480,
            "byteOffset" : 13792
        },
        {
            "buffer" : 0,
            "byteLength" : 480,
            "byteOffset" : 14272
        },
        {
            "buffer" : 0,
            "byteLength" : 320,
            "byteOffset" : 14752
        },
        {
            "buffer" : 0,
            "byteLength" : 228,
            "byteOffset" : 15072
        },
        {
            "buffer" : 0,
            "byteLength" : 480,
            "byteOffset" : 15300
        },
        {
            "buffer" : 0,
            "byteLength" : 480,
            "byteOffset" : 15780
        },
        {
            "buffer" : 0,
            "byteLength" : 320,
            "byteOffset" : 16260
        },
        {
            "buffer" : 0,
            "byteLength" : 480,
            "byteOffset" : 16580
        },
        {
            "buffer" : 0,
            "byteLength" : 480,
            "byteOffset" : 17060
        },
        {
            "buffer" : 0,
            "byteLength" : 320,
            "byteOffset" : 17540
        },
        {
            "buffer" : 0,
            "byteLength" : 480,
            "byteOffset" : 17860
        },
        {
            "buffer" : 0,
            "byteLength" : 480,
            "byteOffset" : 18340
        },
        {
            "buffer" : 0,
            "byteLength" : 320,
            "byteOffset" : 18820
        },
        {
            "buffer" : 0,
            "byteLength" : 480,
            "byteOffset" : 19140
        },
        {
            "buffer" : 0,
            "byteLength" : 480,
            "byteOffset" : 19620
        },
        {
            "buffer" : 0,
            "byteLength" : 320,
            "byteOffset" : 20100
        },
        {
            "buffer" : 0,
            "byteLength" : 1004,
            "byteOffset" : 20420
        },
        {
            "buffer" : 0,
            "byteLength" : 4016,
            "byteOffset" : 21424
        }
    ],
    "buffers" : [
        {
            "byteLength" : 25440,
            "uri" : "data:application/octet-stream;base64,"
        }
    ]
}
